<?xml version="1.0" encoding="UTF-8" standalone="no"?>
<svg
   width="63.911625"
   height="58.981274"
   viewBox="0 0 63.911625 58.981274"
   version="1.1"
   id="svg9"
   xmlns="http://www.w3.org/2000/svg"
   xmlns:svg="http://www.w3.org/2000/svg">
  <defs
     id="defs6">
    <radialGradient
       id="radial0"
       gradientUnits="userSpaceOnUse"
       cx="-121.76502"
       cy="109.09166"
       fx="-121.76502"
       fy="109.09166"
       r="27.5"
       gradientTransform="matrix(1.082386,0,0,1.082386,98.927643,-12.307667)">
      <stop
         offset="0.8"
         style="stop-color:rgb(100%,100%,100%);stop-opacity:1;"
         id="stop1" />
      <stop
         offset="1"
         style="stop-color:rgb(0%,9.803922%,43.137255%);stop-opacity:1;"
         id="stop2" />
    </radialGradient>
    <linearGradient
       id="linear0"
       gradientUnits="userSpaceOnUse"
       x1="-122.9733"
       y1="143.66483"
       x2="-43.126656"
       y2="143.66483"
       gradientTransform="matrix(0.70293,0.70293,-0.704283,0.704283,27.358116,88.994667)">
      <stop
         offset="0"
         style="stop-color:rgb(0%,9.803922%,43.137255%);stop-opacity:1;"
         id="stop3" />
      <stop
         offset="0.599156"
         style="stop-color:rgb(86.27451%,13.72549%,11.764706%);stop-opacity:1;"
         id="stop4" />
    </linearGradient>
    <linearGradient
       id="linear1"
       gradientUnits="userSpaceOnUse"
       x1="-122.9733"
       y1="143.66483"
       x2="-43.126656"
       y2="143.66483"
       gradientTransform="matrix(0.70293,-0.70293,-0.704283,-0.704283,27.358116,162.89806)">
      <stop
         offset="0"
         style="stop-color:rgb(0%,9.803922%,43.137255%);stop-opacity:1;"
         id="stop5" />
      <stop
         offset="0.599156"
         style="stop-color:rgb(86.27451%,13.72549%,11.764706%);stop-opacity:1;"
         id="stop6" />
    </linearGradient>
  </defs>
  <g
     id="surface1"
     transform="translate(0,-0.0015971)">
    <path
       style="fill:url(#radial0);fill-rule:nonzero;stroke:#00176e;stroke-width:1.98391;stroke-linecap:butt;stroke-linejoin:miter;stroke-miterlimit:4;stroke-opacity:1"
       d="m -4.096952,105.77257 c 0,-15.892585 -12.880006,-28.773029 -28.771026,-28.773029 -15.89102,0 -28.774988,12.880444 -28.774988,28.773029 0,15.88864 12.883968,28.77302 28.774988,28.77302 15.89102,0 28.771026,-12.88438 28.771026,-28.77302 z m 0,0"
       transform="matrix(0.985964,0,0,0.990783,66.97304,-75.305427)"
       id="path6" />
    <path
       style="fill:url(#linear0);fill-rule:nonzero;stroke:#ffffff;stroke-width:0.529167;stroke-linecap:round;stroke-linejoin:round;stroke-miterlimit:4;stroke-opacity:1"
       d="m -118.16924,117.7664 c -15.49879,-15.49833 -34.34536,-21.782814 -42.09476,-14.03168 -3.91828,3.92288 -4.37785,10.94463 -1.26779,19.366 -0.60617,-5.09776 0.48334,-9.21777 3.13779,-11.88296 7.7494,-7.75114 26.59596,-1.46665 42.09476,14.03168 7.05607,7.05723 12.52344,15.18291 15.31259,22.75663 -1.07763,-9.20595 -7.56319,-20.61975 -17.18259,-30.23967 z m 0,0"
       transform="matrix(0.985964,0,0,0.990783,162.84261,-95.294175)"
       id="path7" />
    <path
       style="fill:#00176e;fill-opacity:1;fill-rule:nonzero;stroke:none"
       d="m 3.914062,29.492188 c 0,-1.8125 -0.878906,-3.277344 -1.957031,-3.277344 C 0.875,26.214844 0,27.679688 0,29.492188 c 0,1.808593 0.875,3.277343 1.957031,3.277343 1.078125,0 1.957031,-1.46875 1.957031,-3.277343 z m 0,0"
       id="path8" />
    <path
       style="fill:url(#linear1);fill-rule:nonzero;stroke:#ffffff;stroke-width:0.529167;stroke-linecap:round;stroke-linejoin:round;stroke-miterlimit:4;stroke-opacity:1"
       d="m -118.16924,134.12815 c -15.49879,15.49832 -34.34536,21.77887 -42.09476,14.03168 -3.91828,-3.92288 -4.37785,-10.94463 -1.26779,-19.36995 -0.60617,5.09777 0.48334,9.22172 3.13779,11.88691 7.7494,7.74719 26.59596,1.46665 42.09476,-14.03168 7.05607,-7.05723 12.52344,-15.18291 15.31259,-22.76057 -1.07763,9.20989 -7.56319,20.62369 -17.18259,30.24361 z m 0,0"
       transform="matrix(0.985964,0,0,0.990783,162.84261,-95.294175)"
       id="path9" />
  </g>
</svg>
